OpenSim_Sub01_CSStiffKnee_LCS.mot
version=1
nRows=45
nColumns=11
inDegrees=no
endheader
time	Bot_Shank	2nd_Bot_Shank	2nd_Top_Shank	Top_Shank	Bot_Thigh	Med_Thigh	Top_Thigh	BNOx	BNOy	BNOZ
0	9470.14636373	9974.11571498	10564.86303251	10509.33794069	13297.65224161	14520.48977417	15336.41960787	200.39416744	-80.88452274	143.54543957
0.01000000	9470.30235844	9974.65907045	10565.75991298	10509.20362965	13297.89868705	14520.68746509	15340.08547085	200.38788478	-80.88522917	143.57072586
0.02000000	9469.82596371	9974.98382172	10566.40571007	10508.90959146	13298.08101091	14520.86872339	15342.56538564	200.38290068	-80.88536473	143.59776389
0.03000000	9468.59404303	9975.03430897	10566.72525867	10508.45739904	13298.17711645	14521.00335562	15343.51535069	200.37961295	-80.88472975	143.62630243
0.04000000	9466.48345992	9974.75487235	10566.64339369	10507.84862528	13298.16490690	14521.06116836	15342.59136445	200.37841938	-80.88312457	143.65609027
0.05000000	9463.37107790	9974.08985204	10566.08495005	10507.08484312	13298.02228551	14521.01196818	15339.44942537	200.37971779	-80.88034953	143.68687619
0.06000000	9459.20369894	9973.01511785	10565.00998624	10506.17490555	13297.73636875	14520.83181040	15333.89913894	200.38356506	-80.87642844	143.71855551
0.07000000	9454.30640677	9971.67707659	10563.56907751	10505.16704199	13297.34410531	14520.53054859	15326.58093709	200.38817430	-80.87259380	143.75181625
0.08000000	9449.13159427	9970.27952855	10561.97691670	10504.12273378	13296.89921473	14520.12941095	15318.41486294	200.39113805	-80.87048492	143.78761319
0.09000000	9444.13175024	9969.02631728	10560.44824497	10503.10347230	13296.45542916	14519.64963424	15310.32117027	200.39004841	-80.87174139	143.82690130
0.10000000	9439.75936347	9968.12128632	10559.19780345	10502.17074888	13296.06648078	14519.11245524	15303.22011290	200.38249745	-80.87800283	143.87063557
0.11000000	9436.42064932	9967.73968006	10558.41539345	10501.38207376	13295.78145231	14518.53897807	15297.93336861	200.36645307	-80.89066816	143.91957605
0.12000000	9434.17983352	9967.84537711	10558.10649500	10500.76553425	13295.61506410	14517.94932643	15294.55407675	200.34266069	-80.90935748	143.97304224
0.13000000	9432.94786100	9968.30752134	10558.19397482	10500.33603021	13295.56663519	14517.36318464	15292.84884360	200.31311057	-80.93289367	144.02970795
0.14000000	9432.63495368	9968.99480976	10558.60030993	10500.10839929	13295.63541200	14516.80023489	15292.58273521	200.27979889	-80.96009580	144.08824395
0.15000000	9433.15133348	9969.77593937	10559.24797737	10500.09747914	13295.82064092	14516.28015943	15293.52081759	200.24472179	-80.98978298	144.14732102
0.16000000	9434.40722233	9970.51960719	10560.05945417	10500.31810742	13296.12156835	14515.82264046	15295.42815678	200.20987543	-81.02077430	144.20560992
0.17000000	9436.31284214	9971.09451021	10560.95721735	10500.78512179	13296.53744069	14515.44736021	15298.06981881	200.17725597	-81.05188885	144.26178143
0.18000000	9438.77841484	9971.36934545	10561.86374395	10501.51335989	13297.06750434	14515.17400090	15301.21086971	200.14885956	-81.08194572	144.31450632
0.19000000	9441.71416234	9971.21280991	10562.70151100	10502.51765938	13297.71100570	14515.02224476	15304.61637551	200.12668236	-81.10976401	144.36245537
0.20000000	9445.02765901	9970.50202243	10563.39392335	10503.80896942	13298.46590876	14515.01038667	15308.05874223	200.11258330	-81.13422197	144.40437920
0.21000000	9448.58686383	9969.24011754	10563.87826881	10505.34005582	13299.31098877	14515.13596311	15311.42020365	200.10636788	-81.15508303	144.44022343
0.22000000	9452.22923979	9967.52723688	10564.10252234	10507.01889468	13300.21024947	14515.38053066	15314.66753922	200.10626092	-81.17279203	144.47085359
0.23000000	9455.79146542	9965.46601746	10564.01493381	10508.75230999	13301.12731461	14515.72523482	15317.76970318	200.11044655	-81.18781136	144.49715884
0.24000000	9459.11021926	9963.15909628	10563.56375308	10510.44712573	13302.02580795	14516.15122113	15320.69564979	200.11710891	-81.20060339	144.52002838
0.25000000	9462.02217984	9960.70911034	10562.69723001	10512.01016588	13302.86935327	14516.63963509	15323.41433329	200.12443214	-81.21163048	144.54035137
0.26000000	9464.36402568	9958.21869664	10561.36361447	10513.34825441	13303.62157430	14517.17162223	15325.89470794	200.13060038	-81.22135502	144.55901700
0.27000000	9465.97243533	9955.79049218	10559.51115632	10514.36821530	13304.24609482	14517.72832807	15328.10572798	200.13379776	-81.23023938	144.57691444
0.28000000	9466.68408730	9953.52713398	10557.08810542	10514.97687254	13304.70653859	14518.29089812	15330.01634767	200.13220844	-81.23874593	144.59493288
0.29000000	9466.33566014	9951.53125902	10554.04271164	10515.08105009	13304.96652935	14518.84047791	15331.59552126	200.12401654	-81.24733705	144.61396150
0.30000000	9464.79068355	9949.89177097	10550.33513184	10514.60035955	13304.99303347	14519.35806605	15332.81199547	200.10769560	-81.25649581	144.63496741
0.31000000	9462.18988854	9948.55579562	10546.04844612	10513.58642693	13304.78752488	14519.82314467	15333.63237476	200.08470661	-81.26691903	144.65972232
0.32000000	9458.83753999	9947.38681746	10541.33825269	10512.16875966	13304.37183517	14520.21430120	15334.02199974	200.05827304	-81.27942959	144.69047264
0.33000000	9455.04001643	9946.24723992	10536.36108707	10510.47787178	13303.76805903	14520.51011156	15333.94619468	200.03164113	-81.29485202	144.72947087
0.34000000	9451.10369641	9944.99946644	10531.27348475	10508.64427732	13302.99829116	14520.68915163	15333.37028386	200.00805713	-81.31401085	144.77896953
0.35000000	9447.33495844	9943.50590044	10526.23198124	10506.79849031	13302.08462626	14520.72999730	15332.25959155	199.99076728	-81.33773060	144.84122116
0.36000000	9444.04018108	9941.62894535	10521.39311203	10505.07102480	13301.04915902	14520.61122446	15330.57944203	199.98301781	-81.36683578	144.91847828
0.37000000	9441.52574284	9939.23100462	10516.91341264	10503.59239481	13299.91398413	14520.31140902	15328.29515958	199.98805497	-81.40215094	145.01299339
0.38000000	9440.09802228	9936.17448166	10512.94941857	10502.49311438	13298.70119631	14519.80912686	15325.37206847	200.00912501	-81.44450058	145.12701904
0.39000000	9440.06339791	9932.32177992	10509.65766531	10501.90369756	13297.43289024	14519.08295387	15321.77549298	200.04947416	-81.49470924	145.26280773
0.40000000	9441.72824828	9927.53530282	10507.19468838	10501.95465836	13296.13116061	14518.11146594	15317.47075738	200.11234867	-81.55360144	145.42261200
0.41000000	9445.25258051	9921.74741404	10505.66864459	10502.73478878	13294.82536637	14516.89919813	15312.49282069	200.19930216	-81.62182739	145.60952040
0.42000000	9450.00471108	9915.26887675	10504.92602117	10504.10721539	13293.58415707	14515.59109277	15307.25328083	200.30273318	-81.69909447	145.83114349
0.43000000	9455.08651634	9908.53780287	10504.72524152	10505.85911807	13292.48940538	14514.37934572	15302.29049196	200.41195921	-81.78479276	146.09661367
0.44000000	9459.59967186	9901.99240028	10504.82466272	10507.77761944	13291.62299391	14513.45618842	15298.14290377	200.51629541	-81.87831211	146.41506450
